<mxfile host="app.diagrams.net" modified="2021-06-19T05:40:59.883Z" agent="5.0 (Macintosh; Intel Mac OS X 10_15_7) AppleWebKit/537.36 (KHTML, like Gecko) Chrome/91.0.4472.106 Safari/537.36" etag="dX3BSAgoExe1b5jynFsO" version="14.8.0" type="github">
  <diagram id="UiMhLzogZM249bKRBJ2H" name="Page-1">
    <mxGraphModel dx="850" dy="576" grid="1" gridSize="10" guides="1" tooltips="1" connect="1" arrows="1" fold="1" page="1" pageScale="1" pageWidth="827" pageHeight="1169" math="0" shadow="0">
      <root>
        <mxCell id="0" />
        <mxCell id="1" parent="0" />
        <mxCell id="PV-ZtE7TEp1QirTDXZ0v-1" value="Neo" style="rounded=0;whiteSpace=wrap;html=1;" vertex="1" parent="1">
          <mxGeometry x="320" y="200" width="120" height="60" as="geometry" />
        </mxCell>
      </root>
    </mxGraphModel>
  </diagram>
</mxfile>
